{
    "asset" : {
        "generator" : "Khronos glTF Blender I/O v1.7.33",
        "version" : "2.0"
    },
    "scene" : 0,
    "scenes" : [
        {
            "name" : "Scene",
            "nodes" : [
                0
            ]
        }
    ],
    "nodes" : [
        {
            "mesh" : 0,
            "name" : "Plane",
            "translation" : [
                0,
                0.11946500837802887,
                0
            ]
        }
    ],
    "materials" : [
        {
            "doubleSided" : true,
            "name" : "Material.001",
            "normalTexture" : {
                "index" : 0
            },
            "pbrMetallicRoughness" : {
                "baseColorTexture" : {
                    "index" : 1
                },
                "metallicFactor" : 0,
                "metallicRoughnessTexture" : {
                    "index" : 2
                }
            }
        }
    ],
    "meshes" : [
        {
            "name" : "Plane",
            "primitives" : [
                {
                    "attributes" : {
                        "POSITION" : 0,
                        "NORMAL" : 1,
                        "TANGENT" : 2,
                        "TEXCOORD_0" : 3
                    },
                    "indices" : 4,
                    "material" : 0
                }
            ]
        }
    ],
    "textures" : [
        {
            "sampler" : 0,
            "source" : 0
        },
        {
            "sampler" : 0,
            "source" : 1
        },
        {
            "sampler" : 0,
            "source" : 2
        }
    ],
    "images" : [
        {
            "mimeType" : "image/jpeg",
            "name" : "Gravel014_2K_NormalDX",
            "uri" : "Gravel014_2K_NormalDX.jpg"
        },
        {
            "mimeType" : "image/jpeg",
            "name" : "Gravel014_2K_Color",
            "uri" : "Gravel014_2K_Color.jpg"
        },
        {
            "mimeType" : "image/png",
            "name" : "Gravel014_2K_Roughness",
            "uri" : "Gravel014_2K_Roughness.png"
        }
    ],
    "accessors" : [
        {
            "bufferView" : 0,
            "componentType" : 5126,
            "count" : 1050694,
            "max" : [
                1.0029783248901367,
                0.09934456646442413,
                1.003043532371521
            ],
            "min" : [
                -1.0022035837173462,
                -0.08930318057537079,
                -1.0034109354019165
            ],
            "type" : "VEC3"
        },
        {
            "bufferView" : 1,
            "componentType" : 5126,
            "count" : 1050694,
            "type" : "VEC3"
        },
        {
            "bufferView" : 2,
            "componentType" : 5126,
            "count" : 1050694,
            "type" : "VEC4"
        },
        {
            "bufferView" : 3,
            "componentType" : 5126,
            "count" : 1050694,
            "type" : "VEC2"
        },
        {
            "bufferView" : 4,
            "componentType" : 5125,
            "count" : 6291456,
            "type" : "SCALAR"
        }
    ],
    "bufferViews" : [
        {
            "buffer" : 0,
            "byteLength" : 12608328,
            "byteOffset" : 0
        },
        {
            "buffer" : 0,
            "byteLength" : 12608328,
            "byteOffset" : 12608328
        },
        {
            "buffer" : 0,
            "byteLength" : 16811104,
            "byteOffset" : 25216656
        },
        {
            "buffer" : 0,
            "byteLength" : 8405552,
            "byteOffset" : 42027760
        },
        {
            "buffer" : 0,
            "byteLength" : 25165824,
            "byteOffset" : 50433312
        }
    ],
    "samplers" : [
        {
            "magFilter" : 9729,
            "minFilter" : 9987
        }
    ],
    "buffers" : [
        {
            "byteLength" : 75599136,
            "uri" : "scene.bin"
        }
    ]
}
