{
    "asset" : {
        "generator" : "Khronos glTF Blender I/O v1.7.33",
        "version" : "2.0"
    },
    "scene" : 0,
    "scenes" : [
        {
            "name" : "Scene",
            "nodes" : [
                4
            ]
        }
    ],
    "nodes" : [
        {
            "mesh" : 0,
            "name" : "generic_planters_planters_0"
        },
        {
            "children" : [
                0
            ],
            "name" : "generic_planters"
        },
        {
            "children" : [
                1
            ],
            "name" : "RootNode"
        },
        {
            "children" : [
                2
            ],
            "name" : "7bfd7c4785354055aaa687d7cdf3281a.fbx",
            "rotation" : [
                0.7071068286895752,
                0,
                0,
                0.7071068286895752
            ]
        },
        {
            "children" : [
                3
            ],
            "name" : "Sketchfab_model",
            "rotation" : [
                -0.7071068286895752,
                0,
                0,
                0.7071068286895752
            ],
            "scale" : [
                4.093582630157471,
                4.093582630157471,
                4.093582630157471
            ]
        }
    ],
    "materials" : [
        {
            "doubleSided" : true,
            "name" : "planters",
            "pbrMetallicRoughness" : {
                "baseColorTexture" : {
                    "index" : 0
                },
                "metallicFactor" : 0,
                "roughnessFactor" : 0.6000000238418579
            }
        }
    ],
    "meshes" : [
        {
            "name" : "generic_planters_planters_0",
            "primitives" : [
                {
                    "attributes" : {
                        "POSITION" : 0,
                        "NORMAL" : 1,
                        "TANGENT" : 2,
                        "TEXCOORD_0" : 3
                    },
                    "indices" : 4,
                    "material" : 0
                }
            ]
        }
    ],
    "textures" : [
        {
            "sampler" : 0,
            "source" : 0
        }
    ],
    "images" : [
        {
            "mimeType" : "image/png",
            "name" : "planters_baseColor",
            "uri" : "planters_baseColor.png"
        }
    ],
    "accessors" : [
        {
            "bufferView" : 0,
            "componentType" : 5126,
            "count" : 67514,
            "max" : [
                11.649116516113281,
                3.944267749786377,
                29.34223747253418
            ],
            "min" : [
                -12.239022254943848,
                -0.16528774797916412,
                -13.767196655273438
            ],
            "type" : "VEC3"
        },
        {
            "bufferView" : 1,
            "componentType" : 5126,
            "count" : 67514,
            "type" : "VEC3"
        },
        {
            "bufferView" : 2,
            "componentType" : 5126,
            "count" : 67514,
            "type" : "VEC4"
        },
        {
            "bufferView" : 3,
            "componentType" : 5126,
            "count" : 67514,
            "type" : "VEC2"
        },
        {
            "bufferView" : 4,
            "componentType" : 5125,
            "count" : 150030,
            "type" : "SCALAR"
        }
    ],
    "bufferViews" : [
        {
            "buffer" : 0,
            "byteLength" : 810168,
            "byteOffset" : 0
        },
        {
            "buffer" : 0,
            "byteLength" : 810168,
            "byteOffset" : 810168
        },
        {
            "buffer" : 0,
            "byteLength" : 1080224,
            "byteOffset" : 1620336
        },
        {
            "buffer" : 0,
            "byteLength" : 540112,
            "byteOffset" : 2700560
        },
        {
            "buffer" : 0,
            "byteLength" : 600120,
            "byteOffset" : 3240672
        }
    ],
    "samplers" : [
        {
            "magFilter" : 9729,
            "minFilter" : 9987
        }
    ],
    "buffers" : [
        {
            "byteLength" : 3840792,
            "uri" : "scene.bin"
        }
    ]
}
