{
    "asset" : {
        "generator" : "Khronos glTF Blender I/O v1.7.33",
        "version" : "2.0"
    },
    "scene" : 0,
    "scenes" : [
        {
            "name" : "Scene",
            "nodes" : [
                4
            ]
        }
    ],
    "nodes" : [
        {
            "mesh" : 0,
            "name" : "pPlane1_ground_0"
        },
        {
            "children" : [
                0
            ],
            "name" : "pPlane1",
            "scale" : [
                87.93196868896484,
                87.93196868896484,
                87.93196868896484
            ],
            "translation" : [
                0,
                0.03342844173312187,
                0.33736830949783325
            ]
        },
        {
            "children" : [
                1
            ],
            "name" : "RootNode"
        },
        {
            "children" : [
                2
            ],
            "name" : "7bfd7c4785354055aaa687d7cdf3281a.fbx",
            "rotation" : [
                0.7071068286895752,
                0,
                0,
                0.7071068286895752
            ]
        },
        {
            "children" : [
                3
            ],
            "name" : "Sketchfab_model",
            "rotation" : [
                -0.7071068286895752,
                0,
                0,
                0.7071068286895752
            ],
            "scale" : [
                4.093582630157471,
                4.093582630157471,
                4.093582630157471
            ]
        }
    ],
    "materials" : [
        {
            "doubleSided" : true,
            "name" : "ground",
            "pbrMetallicRoughness" : {
                "baseColorFactor" : [
                    0.5173333883285522,
                    0.3731670677661896,
                    0.3491828143596649,
                    1
                ],
                "metallicFactor" : 0,
                "roughnessFactor" : 0.6000000238418579
            }
        }
    ],
    "meshes" : [
        {
            "name" : "pPlane1_ground_0",
            "primitives" : [
                {
                    "attributes" : {
                        "POSITION" : 0,
                        "NORMAL" : 1,
                        "TANGENT" : 2,
                        "TEXCOORD_0" : 3
                    },
                    "indices" : 4,
                    "material" : 0
                }
            ]
        }
    ],
    "accessors" : [
        {
            "bufferView" : 0,
            "componentType" : 5126,
            "count" : 985,
            "max" : [
                0.5,
                0.005578578915446997,
                0.5
            ],
            "min" : [
                -0.5,
                -0.0009488403447903693,
                -0.5
            ],
            "type" : "VEC3"
        },
        {
            "bufferView" : 1,
            "componentType" : 5126,
            "count" : 985,
            "type" : "VEC3"
        },
        {
            "bufferView" : 2,
            "componentType" : 5126,
            "count" : 985,
            "type" : "VEC4"
        },
        {
            "bufferView" : 3,
            "componentType" : 5126,
            "count" : 985,
            "type" : "VEC2"
        },
        {
            "bufferView" : 4,
            "componentType" : 5123,
            "count" : 3996,
            "type" : "SCALAR"
        }
    ],
    "bufferViews" : [
        {
            "buffer" : 0,
            "byteLength" : 11820,
            "byteOffset" : 0
        },
        {
            "buffer" : 0,
            "byteLength" : 11820,
            "byteOffset" : 11820
        },
        {
            "buffer" : 0,
            "byteLength" : 15760,
            "byteOffset" : 23640
        },
        {
            "buffer" : 0,
            "byteLength" : 7880,
            "byteOffset" : 39400
        },
        {
            "buffer" : 0,
            "byteLength" : 7992,
            "byteOffset" : 47280
        }
    ],
    "buffers" : [
        {
            "byteLength" : 55272,
            "uri" : "scene.bin"
        }
    ]
}
