{
    "asset" : {
        "generator" : "Khronos glTF Blender I/O v1.7.33",
        "version" : "2.0"
    },
    "scene" : 0,
    "scenes" : [
        {
            "name" : "Scene",
            "nodes" : [
                4
            ]
        }
    ],
    "nodes" : [
        {
            "mesh" : 0,
            "name" : "polySurface42_spaceship_earth_buildings_0"
        },
        {
            "children" : [
                0
            ],
            "name" : "polySurface42"
        },
        {
            "children" : [
                1
            ],
            "name" : "RootNode"
        },
        {
            "children" : [
                2
            ],
            "name" : "7bfd7c4785354055aaa687d7cdf3281a.fbx",
            "rotation" : [
                0.7071068286895752,
                0,
                0,
                0.7071068286895752
            ]
        },
        {
            "children" : [
                3
            ],
            "name" : "Sketchfab_model",
            "rotation" : [
                -0.7071068286895752,
                0,
                0,
                0.7071068286895752
            ],
            "scale" : [
                4.093582630157471,
                4.093582630157471,
                4.093582630157471
            ]
        }
    ],
    "materials" : [
        {
            "doubleSided" : true,
            "name" : "spaceship_earth_buildings",
            "pbrMetallicRoughness" : {
                "baseColorTexture" : {
                    "index" : 0
                },
                "metallicFactor" : 0,
                "roughnessFactor" : 0.6000000238418579
            }
        }
    ],
    "meshes" : [
        {
            "name" : "polySurface42_spaceship_earth_buildings_0",
            "primitives" : [
                {
                    "attributes" : {
                        "POSITION" : 0,
                        "NORMAL" : 1,
                        "TANGENT" : 2,
                        "TEXCOORD_0" : 3
                    },
                    "indices" : 4,
                    "material" : 0
                }
            ]
        }
    ],
    "textures" : [
        {
            "sampler" : 0,
            "source" : 0
        }
    ],
    "images" : [
        {
            "mimeType" : "image/png",
            "name" : "spaceship_earth_buildings_baseColor",
            "uri" : "spaceship_earth_buildings_baseColor.png"
        }
    ],
    "accessors" : [
        {
            "bufferView" : 0,
            "componentType" : 5126,
            "count" : 11815,
            "max" : [
                9.039151191711426,
                3.8651435375213623,
                14.512733459472656
            ],
            "min" : [
                -9.031538009643555,
                -0.15037819743156433,
                -7.5484771728515625
            ],
            "type" : "VEC3"
        },
        {
            "bufferView" : 1,
            "componentType" : 5126,
            "count" : 11815,
            "type" : "VEC3"
        },
        {
            "bufferView" : 2,
            "componentType" : 5126,
            "count" : 11815,
            "type" : "VEC4"
        },
        {
            "bufferView" : 3,
            "componentType" : 5126,
            "count" : 11815,
            "type" : "VEC2"
        },
        {
            "bufferView" : 4,
            "componentType" : 5123,
            "count" : 16449,
            "type" : "SCALAR"
        }
    ],
    "bufferViews" : [
        {
            "buffer" : 0,
            "byteLength" : 141780,
            "byteOffset" : 0
        },
        {
            "buffer" : 0,
            "byteLength" : 141780,
            "byteOffset" : 141780
        },
        {
            "buffer" : 0,
            "byteLength" : 189040,
            "byteOffset" : 283560
        },
        {
            "buffer" : 0,
            "byteLength" : 94520,
            "byteOffset" : 472600
        },
        {
            "buffer" : 0,
            "byteLength" : 32898,
            "byteOffset" : 567120
        }
    ],
    "samplers" : [
        {
            "magFilter" : 9729,
            "minFilter" : 9987
        }
    ],
    "buffers" : [
        {
            "byteLength" : 600020,
            "uri" : "scene.bin"
        }
    ]
}
