{
    "asset" : {
        "generator" : "Khronos glTF Blender I/O v1.7.33",
        "version" : "2.0"
    },
    "scene" : 0,
    "scenes" : [
        {
            "name" : "Scene",
            "nodes" : [
                4
            ]
        }
    ],
    "nodes" : [
        {
            "mesh" : 0,
            "name" : "pCylinder6_spaceship_earth_0"
        },
        {
            "children" : [
                0
            ],
            "name" : "pCylinder6"
        },
        {
            "children" : [
                1
            ],
            "name" : "RootNode"
        },
        {
            "children" : [
                2
            ],
            "name" : "7bfd7c4785354055aaa687d7cdf3281a.fbx",
            "rotation" : [
                0.7071068286895752,
                0,
                0,
                0.7071068286895752
            ]
        },
        {
            "children" : [
                3
            ],
            "name" : "Sketchfab_model",
            "rotation" : [
                -0.7071068286895752,
                0,
                0,
                0.7071068286895752
            ],
            "scale" : [
                4.093582630157471,
                4.093582630157471,
                4.093582630157471
            ]
        }
    ],
    "materials" : [
        {
            "doubleSided" : true,
            "name" : "spaceship_earth",
            "pbrMetallicRoughness" : {
                "baseColorFactor" : [
                    0.800000011920929,
                    0.800000011920929,
                    0.800000011920929,
                    1
                ],
                "metallicFactor" : 0,
                "roughnessFactor" : 0.0958460345864296
            }
        }
    ],
    "meshes" : [
        {
            "name" : "pCylinder6_spaceship_earth_0",
            "primitives" : [
                {
                    "attributes" : {
                        "POSITION" : 0,
                        "NORMAL" : 1,
                        "TANGENT" : 2,
                        "TEXCOORD_0" : 3
                    },
                    "indices" : 4,
                    "material" : 0
                }
            ]
        }
    ],
    "accessors" : [
        {
            "bufferView" : 0,
            "componentType" : 5126,
            "count" : 21872,
            "max" : [
                4.6034698486328125,
                10.216691970825195,
                4.778922080993652
            ],
            "min" : [
                -4.538003921508789,
                -0.08724874258041382,
                -4.362551689147949
            ],
            "type" : "VEC3"
        },
        {
            "bufferView" : 1,
            "componentType" : 5126,
            "count" : 21872,
            "type" : "VEC3"
        },
        {
            "bufferView" : 2,
            "componentType" : 5126,
            "count" : 21872,
            "type" : "VEC4"
        },
        {
            "bufferView" : 3,
            "componentType" : 5126,
            "count" : 21872,
            "type" : "VEC2"
        },
        {
            "bufferView" : 4,
            "componentType" : 5123,
            "count" : 21876,
            "type" : "SCALAR"
        }
    ],
    "bufferViews" : [
        {
            "buffer" : 0,
            "byteLength" : 262464,
            "byteOffset" : 0
        },
        {
            "buffer" : 0,
            "byteLength" : 262464,
            "byteOffset" : 262464
        },
        {
            "buffer" : 0,
            "byteLength" : 349952,
            "byteOffset" : 524928
        },
        {
            "buffer" : 0,
            "byteLength" : 174976,
            "byteOffset" : 874880
        },
        {
            "buffer" : 0,
            "byteLength" : 43752,
            "byteOffset" : 1049856
        }
    ],
    "buffers" : [
        {
            "byteLength" : 1093608,
            "uri" : "scene.bin"
        }
    ]
}
